<?xml version="1.0" ?><svg data-name="Layer 2" id="Layer_2" viewBox="0 0 35 35" xmlns="http://www.w3.org/2000/svg"><path d="M12.9,34.75a4.45,4.45,0,0,1-3-1C5.28,29.9,3.78,23.15,3.72,22.87S1.76,16.09,6.21,11c3.63-4.16,8.42-2.64,10.31-1.79a3.47,3.47,0,0,0,2.17.27,2.76,2.76,0,0,0,.65-.22,9.43,9.43,0,0,1,2.57-.91,8.59,8.59,0,0,1,8.71,3.32,1.23,1.23,0,0,1,.19,1,1.31,1.31,0,0,1-.58.8,5.59,5.59,0,0,0-2.84,4.18c-.23,4.85,3.37,6.27,3.52,6.33a1.26,1.26,0,0,1,.76,1.55,19.48,19.48,0,0,1-5.11,8.26,5.84,5.84,0,0,1-6.13.27,5.23,5.23,0,0,0-4.3-.13A7,7,0,0,1,12.9,34.75Zm-.67-24a5.29,5.29,0,0,0-4.14,1.92c-3.53,4-2,9.56-1.95,9.62s1.41,6.3,5.4,9.54l.12.11s1.05.93,3.34-.25a7.71,7.71,0,0,1,6.49.1,3.51,3.51,0,0,0,3.5.05h0a17.3,17.3,0,0,0,4-6.07,8.85,8.85,0,0,1-4-8.25,7.9,7.9,0,0,1,2.82-5.33,6.13,6.13,0,0,0-5.33-1.37,7.32,7.32,0,0,0-1.91.68,5.31,5.31,0,0,1-1.22.44h0a5.9,5.9,0,0,1-3.76-.43A8.16,8.16,0,0,0,12.23,10.71Zm6.75,0h0Z"/><path d="M18.58,6.15a1.22,1.22,0,0,1-.92-.4A1.25,1.25,0,0,1,17.73,4L21.4.58a1.24,1.24,0,0,1,1.76.07,1.26,1.26,0,0,1-.06,1.77l-3.68,3.4A1.24,1.24,0,0,1,18.58,6.15Z"/></svg>