<svg xmlns="http://www.w3.org/2000/svg" version="1.1" xmlns:xlink="http://www.w3.org/1999/xlink" xmlns:svgjs="http://svgjs.dev/svgjs" width="652.59894" height="587.73071"><svg version="1.1" id="SvgjsSvg1019" xml:space="preserve" width="652.59894" height="587.73071" viewBox="0 0 652.59894 587.73071" sodipodi:docname="11ca61b96b1d6aceb5666628a57db3e4.eps" xmlns:inkscape="http://www.inkscape.org/namespaces/inkscape" xmlns:sodipodi="http://sodipodi.sourceforge.net/DTD/sodipodi-0.dtd" xmlns="http://www.w3.org/2000/svg" xmlns:svg="http://www.w3.org/2000/svg"><defs id="SvgjsDefs1018"></defs><sodipodi:namedview id="SvgjsSodipodi:namedview1017" pagecolor="#ffffff" bordercolor="#666666" borderopacity="1.0" inkscape:pageshadow="2" inkscape:pageopacity="0.0" inkscape:pagecheckerboard="0"></sodipodi:namedview><g id="SvgjsG1016" inkscape:groupmode="layer" inkscape:label="ink_ext_XXXXXX" transform="matrix(1.3333333,0,0,-1.3333333,-0.00625,588.31199)"><g id="SvgjsG1015" transform="scale(0.1)"><path d="m 3413.4,1335.13 c -64.98,110.59 66.62,519.78 107.92,527.91 l 20.73,-69.9 117.3,222.84 c 47.43,-17.89 -41.47,-340.32 -62.23,-381.22 -35.16,-69.28 -135.3,-281.9 -183.72,-299.63 z M 982.078,130.559 932.246,100.59 C 921.918,92.2695 903.219,72.3672 892.586,73.6367 876.52,75.5508 872.27,58.8633 837.023,34.2852 c 1.356,3.5742 2.481,4.3789 3.887,8.1796 l 3.418,9.6836 c 5.09,9.0664 12.438,11.1641 15.969,19.4688 -0.867,0.125 -1.563,0.2422 -2.133,0.3516 -8.109,-3.7735 -16.215,-7.543 -24.344,-11.3047 -1,-0.7852 -2.078,-1.8594 -3.461,-3.4649 -4.953,-5.7695 -5.796,-7.2344 -11.91,-12.3906 l 6.36,10.9805 C 797.469,39.9258 774.039,20.1523 740.039,17.8828 730.012,13.3672 719.98,8.85156 709.922,4.35938 719.988,10.9922 730.738,17.9844 741.875,25.168 l 2.539,3.3789 c 11.785,10.9023 14.024,13.707 12.629,15.5195 L 915.195,133.691 C 1425.82,447.191 2363.83,988.75 2407,1129.21 c 82.94,516.16 155.54,767.88 218.56,1067.7 -153.7,85.28 36.23,205.99 39,266.46 -33.91,32.92 -37.21,23.76 -80.16,40.38 -47.5,18.39 -38.46,30.6 -73,52.16 -26.6,-12.17 -75.01,-114.43 -104.3,-149.5 -62.64,-75.02 -72.95,-75.16 -173.97,-54.59 -42.77,8.71 -135.01,53.62 -146.17,106.35 -18.59,87.89 18.99,158.06 24.55,228.41 -42.99,19.92 -74.79,9.57 -114.69,35.42 -29.57,19.16 -69.83,58.1 -88.32,69.41 -93.59,-92.07 -250.05,-332.8 -315.53,-466.85 -13.88,-28.42 -30.41,-104.06 -44.24,-117.18 -38.8,-36.78 -193.98,70.56 -203.22,89.55 l 113.74,317.58 c -34.22,-8.7 -229.45,-257.22 -258.57,-300.35 -15.56,-23.05 -227.157,-328.16 -233.383,-331.3 -15.18,-7.52 -115.57,5.13 -142.215,11.39 -17.789,4.18 -95.801,45.28 -113.43,55.16 -0.234,3.36 150.481,399.75 162.911,434.49 14.488,40.01 96.593,273.05 127.637,386.08 -31.36,-10.11 -65.813,-21.34 -94.673,-33.27 -34.648,-14.33 -73.019,-22.55 -109.769,-33.05 l -136.254,-36.4 c -15.742,-3.51 -32.207,-6.58 -48.754,-9.59 -9.219,-3.15 -16.457,-5.23 -21.16,-5.96 -20.207,-3.16 -39.742,-7.27 -58.449,-10.71 l 0.714,-1.39 c 5.098,-10.24 5.434,-13.37 -25.699,-16.41 -49.859,-4.87 -96.593,-8.46 -146.672,-17.43 -41.468,-7.43 -167.734,-35.24 -196.898,-27.32 l 82.062,14.66 c -7.14,3.45 -17.152,-0.51 -25.3,-0.66 l 39.488,13.88 c -6.481,2.04 -8.008,0.63 -14.027,1.9 l -7.305,5.51 c -10.606,-1.91 -9.508,-3.88 -17.227,-1.61 1.86,13.25 10.938,4.57 23.164,13.94 -5.054,1.07 -5.867,-0.04 -11.164,0.49 -17.23,1.75 -4.55,0.83 -10.195,4.11 l -10.098,0.47 c -9.589,-3.9 4.95,-6.01 -10.207,-4.36 -2.093,4.23 -3.222,0.32 4.61,6.68 0.332,0.28 1.25,0.7 1.758,1.18 -17.825,2.94 -17.95,-16.26 -27.094,0.16 11.785,10.11 76.066,12.58 103.355,25.74 -13.105,-2.04 -39.246,-9.92 -47.82,-3.51 -12.957,9.69 -24.984,-2.63 -67.793,-6.3 2.957,2.42 4.332,2.55 7.453,5.15 l 7.805,6.67 c 8.937,5.31 16.351,3.45 23.562,8.88 -5.871,4.56 -1.101,3.04 -11.05,2.86 -14.657,-0.26 -13.293,2.7 -22.086,-0.38 -7.176,-2.52 -8.637,-3.37 -16.508,-4.77 l 10.996,6.33 c -32.77,-0.08 -63.996,-5.89 -95.7306,11.28 l 12.4844,5.32 c 27.3472,6.2 17.1212,5.57 15.5582,15.14 -0.019,0.13 0.067,0.76 -0.113,1.08 -7.3515,0.76 -9.7577,0.8 -18.0624,1.05 -11.9571,0.34 -8.4414,4.32 -13.2227,5.78 -17.5625,-1.32 -41.9141,-9.2 -56.3906,-5.21 3.3828,6.38 13.207,8.98 15.2109,16.75 l -0.5312,3.8 c 20.1758,3.72 27.6172,6.3 44.3945,16.64 l -12.8047,5.66 c 3.332,6.2 4.582,4.56 2.4649,7.82 l -34.5118,-6.35 c 1.0508,6.58 0.2305,1.82 1.9414,6.02 l 3.5977,8.4 30.5195,8.34 c -0.1211,0.42 -4.9804,2.97 -5.3007,3.16 -0.4141,0.25 -1.1172,0.75 -1.5704,1.02 -0.4453,0.28 -1.0546,0.77 -1.5195,1.04 -7.6758,4.47 1.7188,3.85 -12.8476,3.14 -9.5899,-0.47 -15.7383,-3.32 -23.8985,0.45 l 16.8203,7.03 -6.414,9.23 c -12.0352,-0.75 -21.35551,-3.71 -30.992225,-0.58 6.273435,7.06 41.343725,11.91 53.378925,14.53 20.8359,4.54 31.1953,9.51 51.4222,18.44 l -11.516,2.74 c 15.086,7.1 56.176,32.69 70.063,22.29 -4.786,0.31 -15.442,-1.72 -23.286,-1.46 9.164,-10.4 18.266,-3.07 30.274,1.27 23.234,8.39 97.191,0.97 166.691,19.85 l 0.641,0.18 c -1.008,10.64 -1.102,19.04 0.008,24.12 2.726,0.74 5.582,1.5 8.5,2.27 -10.711,-0.31 -8.696,2.22 -19.012,4 8.305,6.03 -1.723,13.51 4.574,21.88 10.856,7.65 45.598,11.45 59.117,10.66 19.309,-1.11 44.129,5.33 65.282,10.3 l -14.375,-7.82 c 14.933,3.52 20.066,8.25 35.554,12.13 14.321,3.58 26.094,5.69 40.371,8.23 3.805,-7.88 1.707,8.35 -0.652,-2.14 -1.281,-5.68 -3.184,1.05 -0.445,-3.36 50.761,12.78 99.511,20.52 150.394,33.31 7.926,1.99 19.727,6.53 25.227,7.77 17.308,3.9 2.59,-5.68 21.637,-3.24 34.863,4.46 124.531,33.21 162.082,48.8 8.211,3.4 10.781,6.54 17.918,8.77 l 35.433,9.36 c 31.168,8.91 108.492,40.37 174.492,63.76 53.95,111.85 37.1,286.7 79.46,377.5 l 160.7,-74.98 -5.86,-171.95 c -1.42,-42.65 -1.73,-44.37 -2.94,-57.12 13.97,4.94 14.86,7.94 48.73,20.41 677.56,205.02 2383.5,794.85 3415.26,1090.36 -2.88,-1.27 -111.57,-42.94 -288.8,-110.95 26.61,8.46 53.37,17 79.51,25.56 28.92,9.45 51.63,19.91 82.02,28.16 l 57.55,17.3 c 12.97,4.47 15.27,4.88 24.22,2.39 -39.06,-17.81 -262.15,-97.26 -316.79,-104.51 -13.42,-1.78 -8.97,-4.61 -11.29,-1.45 C 3629.15,3963.09 1800.22,3259.73 1355.83,3069.59 l -13.15,-8.13 -0.21,-8.54 c -17.43,-6.15 -30.77,-14.79 -45.67,-22.27 -7.41,-3.72 -16.43,-7.07 -25.59,-10.37 -2.52,-6.49 -5.58,-14.99 -9.04,-25.08 2.7,0.45 5.38,0.82 8.05,1.09 -2.92,-1.09 -5.85,-2.18 -8.79,-3.25 -42.42,-124.39 -144.72,-482.78 -135.23,-495.02 19.22,4.36 486.05,494.69 533.26,627.85 131.17,46.83 174.81,-32.42 249.17,-22.09 87.2,146.45 62.02,154.03 171.92,110.27 31.69,-12.62 69.25,-14.87 97.52,-26.78 73.03,-30.75 -14.53,-101.59 -16.95,-166.83 18.7,6.04 79.31,99.52 95.89,126.99 9.43,15.64 33.68,53.2 38.6,69.49 l 30.02,90.26 93.18,-37.61 31.87,37.92 c 9.13,-1.44 181.38,-56.75 189.3,-60.86 79.45,-41.34 -43.66,-507.16 24.32,-624.04 127.28,25.9 350.71,846.18 430.68,997.21 L 3302,3541.93 c -1.46,-22.06 -309.69,-783.92 -289.87,-807.98 141.99,64.41 416.18,139.3 557.89,90.63 65.27,-22.41 109.03,-53.11 163.24,-74.2 58.68,-22.83 97.26,-51.43 133.58,-96.9 23.94,-29.96 44.87,-133.53 36.75,-193.33 -22.18,-163.41 -79.21,-234.27 -144.22,-329.66 37.1,-27.33 62.14,-28.56 80.88,-83.86 10.12,-29.87 16.18,-133.49 24.14,-143.22 34.91,12.95 85.61,212.95 96.97,237.29 l 61.87,147.49 c 28.45,56.45 35.1,81.77 39.06,110.4 46.86,338.99 52.32,796.54 269.21,1191.12 l 165.8,-43 c -44.57,-453.89 -79.74,-715.87 -231.01,-1141.15 -19.31,-54.26 -38.69,-275.79 -46.5,-360.29 -2.64,-28.52 -14.41,-34.31 18.57,-34.28 30.77,58.2 70.85,144.69 109.62,235.47 76.94,180.1 122.76,281.33 139.41,472.07 3.95,45.22 8.91,86.3 15.91,90.66 l 200.03,-42.28 c 10.24,-40.57 -46.11,-316.62 -54.95,-374.7 -21.78,-142.83 -43.48,-243.42 -42.3,-396.5 10.45,5.79 29.49,46.45 48.22,89.78 -0.9,0.27 -1.65,0.92 0.54,1.25 l -0.16,-0.36 -0.36,0.24 c 2.43,7.76 4.43,14.17 7.43,21.88 3.25,8.35 6.25,10.88 9.25,18.94 l -5.36,-7.45 c 4.25,11.42 9.59,24.78 10.32,35.6 0.52,7.59 5.08,26.66 10.11,32.16 5.09,2.91 8.55,-3.19 12.49,1 0.02,-0.4 0.04,-0.77 0.07,-1.12 2.16,4.23 3.95,7.28 5.28,8.84 4.11,-7.04 6.39,-13.45 9.18,-19.22 0.58,1.11 1.18,2.38 1.79,3.86 15.4,37.35 16.48,79.05 22.78,91.38 3.26,6.38 7.99,10.92 2.84,16.76 -0.41,-4.39 -2.29,-10.17 -2.45,-12.86 -4.81,8.46 12.33,29.53 17.34,37.43 l 0.72,-6.61 c 6.39,10.64 9.89,16.05 13.87,27.33 2.31,6.51 7.47,25.69 11.85,28.68 1.06,-5.58 -1.24,-10.56 -2.51,-17.2 l 4.69,-4.22 5.1,8.86 c 1.52,-4.8 -0.5,-8.02 -1.43,-13.33 -1.43,-8.06 -1.11,-2.79 0.84,-7.37 0.11,-0.28 0.35,-0.66 0.46,-0.92 0.13,-0.27 0.36,-0.7 0.47,-0.95 0.08,-0.19 1.16,-3.07 1.38,-3.17 l 6.79,16.4 4.93,1.41 c 2.46,0.66 -0.25,0.53 3.49,0.66 l -5.97,-18.76 c 1.68,-1.41 0.85,-0.6 4.54,0.82 l 2.24,-7.53 c 6.94,8.62 8.9,12.57 12.39,23.54 l 2.08,-0.57 c 4.46,0.57 6.6,5.86 10.38,7.29 1.21,-8.33 -4.89,-21.33 -6.86,-31.02 0.47,-2.76 2.93,-1.09 2.29,-7.76 -0.45,-4.64 -0.6,-5.98 -0.69,-10.13 0.16,-0.12 0.52,-0.12 0.59,-0.14 5.22,-1.54 4.15,-7.19 9.52,7.59 l 3.84,6.58 c 7.32,-18.87 1.89,-35.84 -0.46,-54.07 l 4.3,5.67 c -1.34,-4.28 -1.91,-5.04 -3.82,-8.85 -2.33,-4.68 -0.59,-4.13 -1.77,-12.26 -0.8,-5.53 -1.3,-2.77 0.82,-6.36 3.52,3.63 3.02,7.89 6.6,12.49 l 4.26,3.87 c 1.66,1.56 1.84,2.32 3.39,3.79 -5.05,-23.57 -12.76,-29.39 -8.28,-37.29 2.97,-5.22 -3.26,-19.22 -5.32,-26.36 9.25,14.26 15.15,49.86 21.6,55.71 8.5,-6.25 -2.19,-4.96 -1.82,-15.09 0.31,0.25 0.61,0.72 0.79,0.89 4.09,3.92 1.83,3.56 4.04,2.1 -0.15,-8.56 -0.3,-0.32 -3.15,-5.37 l -0.44,-5.66 c 1.42,-3.37 1.8,3.75 1.56,-5.96 -0.07,-2.99 -0.75,-3.36 -0.51,-6.25 6.08,6.15 1.88,11.81 9.39,11.91 0.72,-4.46 -0.3,-3.71 -2.11,-9.47 l 2.56,-4.46 c 0.28,-3.44 -0.61,-4.19 0.06,-7.94 l 10.51,21 c -0.66,-4.52 -3.56,-9.81 -2.14,-14.04 l 13.93,44.65 c 2.35,-16.79 -22.02,-85.11 -29.08,-107.66 -35.85,-114.7 -100.02,-340.18 -208.15,-392.25 -46.33,-22.31 -207.91,58.36 -221.09,70.94 -15.04,14.34 -30.07,56.11 -45.51,60.52 -8.84,-7.07 -128.55,-298.41 -141.84,-334.28 -19.88,-53.67 -18.34,-152.05 -102.21,-96.52 -30.51,20.19 -143.42,48.36 -159.45,78.28 -0.95,1.5 -3.75,6.83 -4.25,8.27 -3.04,35.48 5.2,70.11 2.01,113.12 -10.88,-6.87 -119.04,-233.3 -161.89,-289.58 -54.48,8.16 -93.71,8.62 -137.29,29.78 -66.88,-82.09 -155.79,-258.29 -293.09,-183.32 -51.63,28.19 -144.38,22.32 -158.39,92.97 -11.31,57.06 -9.2,171.03 -9.06,244.37 -22.15,-2.03 -500.72,-410.81 -597.57,-486.59 l -15.36,-315.164 c -31.39,-28.852 -201.46,-24.242 -224.19,7.184 l -9.89,121.449 C 2333.94,875.988 1725.02,487.344 982.078,130.559 Z m 27.222,2766.951 -60.112,-22.16 c 15.753,1.5 37.109,7.42 58.242,14.49 0.66,2.66 1.29,5.23 1.87,7.67 z M 555.063,2731.88 c 3.25,5.17 -6.192,1.65 11.652,5.15 l 50.254,8.31 c 19.48,4.47 60.226,18.62 76.058,19.45 l -9.613,-5.65 c 14.086,1.38 4.484,2.05 7.637,-3.44 -12.356,-5.82 -118.848,-30.02 -135.988,-23.82 z m 193.472,39.07 c 36.875,11.57 76.918,23.62 115.039,35.72 19.762,6.27 35.305,13.26 56.063,18.69 l 39.32,11.44 c 8.867,2.97 10.434,3.24 16.52,1.49 -26.727,-11.91 -179.239,-64.69 -216.508,-69.3 -11.707,-1.44 -3.52,-4.24 -10.434,1.96 z m 3718.035,702.02 -203.37,-943.4 c 107.06,354 151.39,577.21 203.37,943.4 z M 3154.46,3687.5 c 11.77,-20.7 84.67,-102.44 124.08,-96.79 33.69,4.83 45.33,41.91 52.61,55.39 15.22,28.15 38.06,42.87 33.78,78.99 -26.6,10.11 -38.2,-4.58 -67.08,13.61 -27.71,17.44 -22.44,12.01 -61.59,19.28 -21.04,3.91 -5.81,5.42 -22.41,-4.68 -27.42,-16.68 -23.88,-24.35 -39.24,-41.57 -10.41,-11.66 -12.83,-11.89 -20.15,-24.23 z m 1458.86,-577.27 c -14.92,-54.59 -86.34,-96.19 -41.16,-142.88 26.8,-27.68 78.98,-88.92 120.77,-60.63 19.75,13.36 77.65,117.91 75.59,142.29 -1.94,23.1 -51.13,29.81 -72.49,36.46 -23.94,7.45 -58.17,21.83 -82.71,24.76 z M 2676.34,1366.27 c 63.02,374.25 187.86,811.07 284.59,1166.71 120.05,78.75 764.36,335.9 764.36,91.46 v -37.59 c 0,-215.95 -308.77,-567.64 -444.44,-688.86 -101.05,-90.28 -517.68,-508.08 -604.51,-531.72 z m -223.98,1671.74 c 3.83,-39.44 -59.93,-260.34 -109.64,-319.16 2.78,68.2 76.95,276.46 109.64,319.16" style="fill:#231f20;fill-opacity:1;fill-rule:evenodd;stroke:none" id="SvgjsPath1014"></path></g></g></svg><style>@media (prefers-color-scheme: light) { :root { filter: none; } }
@media (prefers-color-scheme: dark) { :root { filter: none; } }
</style></svg>